<?xml version="1.0" encoding="utf-8"?>
<!-- Generator: Adobe Illustrator 23.0.5, SVG Export Plug-In . SVG Version: 6.00 Build 0)  -->
<svg version="1.1" id="Layer_1" xmlns="http://www.w3.org/2000/svg" xmlns:xlink="http://www.w3.org/1999/xlink" x="0px" y="0px"
	 viewBox="0 0 48 48" style="enable-background:new 0 0 48 48;" xml:space="preserve">
<style type="text/css">
	.st0{fill-rule:evenodd;clip-rule:evenodd;fill:#1ABC9C;}
	.st1{fill-rule:evenodd;clip-rule:evenodd;fill:#FFFFFF;}
</style>
<path class="st0" d="M22.9,3.3c0.7-0.4,1.5-0.4,2.2,0c3.4,1.9,13.5,7.6,16.8,9.4c0.7,0.4,1.1,1.1,1.1,1.8c0,3.8,0,15.1,0,18.9
	c0,0.8-0.4,1.5-1.1,1.8c-3.4,1.9-13.5,7.6-16.8,9.4c-0.7,0.4-1.5,0.4-2.2,0c-3.4-1.9-13.5-7.6-16.8-9.4C5.4,34.9,5,34.2,5,33.4
	c0-3.8,0-15.1,0-18.9c0-0.8,0.4-1.5,1.1-1.8C9.5,10.8,19.5,5.2,22.9,3.3z"/>
<path class="st0" d="M5.3,34.4C5,34,5,33.7,5,33.3c0-3.7,0-15,0-18.8c0-0.8,0.4-1.5,1.1-1.8c3.3-1.9,13.4-7.5,16.7-9.4
	c0.7-0.4,1.6-0.4,2.3,0c3.3,1.9,13.4,7.5,16.7,9.3c0.3,0.2,0.5,0.3,0.7,0.6L5.3,34.4z"/>
<path class="st1" d="M24,10c7.7,0,14,6.3,14,14s-6.3,14-14,14s-14-6.3-14-14S16.3,10,24,10z M24,17c3.9,0,7,3.1,7,7c0,3.9-3.1,7-7,7
	s-7-3.1-7-7C17,20.1,20.1,17,24,17z"/>
<path class="st0" d="M42.5,13.2C43,13.7,43,14.4,43,15c0,3.8,0,14.6,0,18.4c0,0.4-0.1,0.8-0.3,1.1L23.6,24L42.5,13.2z"/>
<path class="st1" d="M31,21h2v6h-2V21z M38,21h2v6h-2V21z"/>
<path class="st1" d="M29,23h6v2h-6V23z M36,23h6v2h-6V23z"/>
</svg>
