<?xml version="1.0" encoding="utf-8"?>
<!-- Generator: Adobe Illustrator 23.0.5, SVG Export Plug-In . SVG Version: 6.00 Build 0)  -->
<svg version="1.1"
	 id="Express" inkscape:version="0.92.2 (5c3e80d, 2017-08-06)" sodipodi:docname="expressjs-ar21.svg" xmlns:cc="http://creativecommons.org/ns#" xmlns:dc="http://purl.org/dc/elements/1.1/" xmlns:inkscape="http://www.inkscape.org/namespaces/inkscape" xmlns:rdf="http://www.w3.org/1999/02/22-rdf-syntax-ns#" xmlns:sodipodi="http://sodipodi.sourceforge.net/DTD/sodipodi-0.dtd" xmlns:svg="http://www.w3.org/2000/svg"
	 xmlns="http://www.w3.org/2000/svg" xmlns:xlink="http://www.w3.org/1999/xlink" x="0px" y="0px" viewBox="0 0 120 60"
	 style="enable-background:new 0 0 120 60;" xml:space="preserve">
<style type="text/css">
	.st0{fill:#1ABC9C;}
</style>
<sodipodi:namedview  bordercolor="#666666" borderopacity="1" gridtolerance="10" guidetolerance="10" id="namedview20" inkscape:current-layer="Express" inkscape:cx="-2.1694915" inkscape:cy="64" inkscape:pageopacity="0" inkscape:pageshadow="2" inkscape:window-height="1001" inkscape:window-maximized="1" inkscape:window-width="1920" inkscape:window-x="-9" inkscape:window-y="-9" inkscape:zoom="1.84375" objecttolerance="10" pagecolor="#ffffff" showgrid="false">
	</sodipodi:namedview>
<title  id="title2">Artboard 12</title>
<g id="original-wordmark" transform="matrix(0.85101532,0,0,0.85101532,5.5198422,-24.472693)">
	<path id="path4" inkscape:connector-curvature="0" class="st0" d="M40.5,77.8V50.7H42V55c0.2-0.2,0.3-0.4,0.5-0.6
		c1.2-2.5,3.8-4.2,6.6-4.1c3.3-0.1,6.1,1.1,7.7,4.1c2.1,3.8,2.2,8.3,0.3,12.1c-1.5,3.3-5.2,5-9.1,4.4c-2.5-0.2-4.7-1.7-5.9-3.9v10.8
		H40.5z M42,60.3c0.1,1.3,0.2,2.3,0.3,3.2c0.6,3.6,2.7,5.8,6.1,6.2c3.3,0.5,6.4-1.3,7.6-4.4c1.3-3.1,1.2-6.6-0.3-9.7
		c-1.2-2.8-4.1-4.4-7.1-3.9c-2.8,0.2-5.2,2.2-5.9,4.9C42.4,57.8,42.2,59,42,60.3z"/>
	<path id="path6" inkscape:connector-curvature="0" class="st0" d="M88.4,64c-0.5,3.9-3.8,6.9-7.7,7c-6.2,0.3-9.1-3.8-9.5-8.5
		c-0.3-2.6,0.1-5.2,1.2-7.5c1.6-3.3,5.1-5.2,8.7-4.7c3.4,0.3,6.3,2.7,7.1,6.1c0.3,1.5,0.5,3,0.7,4.5H72.7c-0.3,4.3,2,7.7,5.3,8.5
		c4.1,1,7.5-0.8,8.8-4.6C87,63.9,87.5,63.7,88.4,64z M72.7,59.6h14.5c-0.1-4.6-2.9-7.9-6.8-7.9C76,51.6,72.9,54.8,72.7,59.6z"/>
	<path id="path8" inkscape:connector-curvature="0" class="st0" d="M91.4,64.1h1.4c0.1,2.1,1.4,4,3.3,4.9c2.4,1.1,5.2,1,7.6-0.2
		c1.3-0.6,2.1-1.9,2-3.3c0.1-1.4-0.8-2.6-2.1-3.1c-1.6-0.6-3.2-0.9-4.8-1.4c-1.7-0.5-3.3-1.1-4.8-1.8c-2.6-1.3-2.7-6.1,0.2-7.7
		c3-1.7,6.7-1.8,9.8-0.2c1.9,1,2.9,3.1,2.6,5.2h-1.2c0-0.1-0.1-0.1-0.1-0.2c-0.2-3.9-3.4-5.1-6.9-4.8c-1,0.1-2.1,0.4-3,0.9
		c-1.2,0.5-1.9,1.7-1.7,3c0,1.3,0.8,2.4,2,2.8c1.5,0.6,3.2,0.9,4.7,1.4c1.3,0.3,2.6,0.6,3.8,1c1.8,0.6,3,2.2,3.1,4.1
		c0.3,2.1-0.7,4.1-2.6,5c-3.3,1.9-8.8,1.4-11.3-1C92.1,67.6,91.4,65.9,91.4,64.1z"/>
	<path id="path10" inkscape:connector-curvature="0" class="st0" d="M125.2,56.6h-1.3c0-0.2-0.1-0.3-0.1-0.5c0-2.1-1.5-3.8-3.5-4.2
		c-1.8-0.5-3.8-0.4-5.6,0.3c-1.5,0.4-2.5,1.7-2.5,3.3c-0.1,1.5,1,2.8,2.4,3.2c2,0.6,4.1,1,6.1,1.6c0.7,0.2,1.3,0.4,1.9,0.6
		c2.6,0.9,4,3.8,3,6.4c-0.5,1.3-1.5,2.4-2.8,2.9c-2.9,1.3-6.1,1.3-9,0.1c-2.4-1-3.9-3.5-3.8-6.1h0.6h0.7c0.8,3.9,4.7,6.5,8.6,5.7
		c0.9-0.2,1.7-0.5,2.5-1c1.2-0.6,2-1.9,1.9-3.3c0.1-1.4-0.8-2.6-2.1-3.1c-1.6-0.6-3.2-0.9-4.8-1.4c-1.7-0.5-3.3-1-4.9-1.8
		c-2.5-1.2-2.7-6.1,0.2-7.6c3.1-1.8,6.8-1.8,9.9-0.1C124.5,52.5,125.5,54.6,125.2,56.6z"/>
	<path id="path12" inkscape:connector-curvature="0" class="st0" d="M38.1,70.5c-1.1,0.4-2.3-0.1-2.8-1.1c-1.6-2.4-3.4-4.8-5.2-7.2
		l-0.8-1c-2.1,2.8-4.1,5.4-6,8.2c-0.5,1-1.7,1.4-2.7,1.1l7.7-10.4l-7.2-9.4c1.1-0.4,2.3,0,2.9,1c1.7,2.4,3.5,4.8,5.4,7.2
		c1.9-2.5,3.7-4.8,5.4-7.2c0.5-1,1.7-1.4,2.7-1l-2.8,3.7c-1.3,1.7-2.5,3.3-3.8,4.9c-0.4,0.4-0.4,1-0.1,1.4c0,0,0.1,0.1,0.1,0.1
		C33.3,64.1,35.7,67.3,38.1,70.5z"/>
	<path id="path14" inkscape:connector-curvature="0" class="st0" d="M70.9,50.7v1.4c-4-0.3-7.4,2.8-7.7,6.8c0,0.2,0,0.5,0,0.7
		c0,3.3,0,6.6,0,9.9c0,0.3,0,0.7,0,1.1h-1.4V50.7h1.4v4.1C64.9,51.8,67.6,50.7,70.9,50.7z"/>
	<path id="path16" inkscape:connector-curvature="0" class="st0" d="M2.1,60c0.2-1,0.3-2.1,0.6-3.1c1.7-6.2,8.8-8.7,13.6-4.9
		c2.8,2.2,3.6,5.4,3.4,9h-16C3.5,67.3,8.1,71.1,14,69.2c1.9-0.7,3.4-2.3,3.9-4.3c0.3-1,0.8-1.2,1.8-0.9c-0.3,2.5-1.7,4.7-3.9,5.9
		c-3.6,2-8,1.4-11-1.4c-1.4-1.6-2.3-3.6-2.5-5.8c0-0.3-0.1-0.7-0.2-1C2.1,61.1,2.1,60.6,2.1,60z M3.8,59.6h14.5
		c-0.1-4.6-3-7.9-6.9-7.9C7.1,51.6,4,54.8,3.8,59.6L3.8,59.6z"/>
</g>
</svg>
