<?xml version="1.0" encoding="utf-8"?>
<!-- Generator: Adobe Illustrator 23.0.5, SVG Export Plug-In . SVG Version: 6.00 Build 0)  -->
<svg version="1.1" id="Layer_1" xmlns="http://www.w3.org/2000/svg" xmlns:xlink="http://www.w3.org/1999/xlink" x="0px" y="0px"
	 viewBox="0 0 50 50" style="enable-background:new 0 0 50 50;" xml:space="preserve">
<style type="text/css">
	.st0{fill:#1ABC9C;}
</style>
<path class="st0" d="M31.2,8c-0.5,0-0.9,0.2-1.1,0.7c-0.4,0.9,0.5,1.7,0.9,2.2c0.2,0.3,0.5,0.7,0.7,1c0.1,0.2,0.1,0.5,0.2,0.7
	c0.2,0.6,0.6,1.3,0.9,1.8c0.1,0.3,0.3,0.6,0.5,0.8c0.1,0.2,0.3,0.2,0.3,0.5c-0.2,0.3-0.2,0.7-0.3,1c-0.5,1.5-0.3,3.4,0.4,4.5
	c0.2,0.3,0.7,1.1,1.4,0.8c0.6-0.2,0.5-1,0.6-1.7c0-0.1,0-0.3,0.1-0.4v0c0.2,0.4,0.4,0.7,0.5,1.1c0.4,0.7,1.1,1.3,1.7,1.8
	c0.3,0.2,0.6,0.7,1,0.8v0h0c-0.1-0.1-0.2-0.2-0.3-0.3c-0.2-0.2-0.5-0.5-0.7-0.8c-0.6-0.8-1.1-1.6-1.5-2.4c-0.2-0.4-0.4-0.9-0.6-1.3
	c-0.1-0.2-0.1-0.4-0.2-0.5c-0.2,0.3-0.5,0.6-0.6,0.9c-0.2,0.6-0.3,1.3-0.4,2c-0.1,0,0,0-0.1,0c-0.4-0.1-0.6-0.5-0.7-0.9
	c-0.4-0.9-0.5-2.5-0.1-3.6c0.1-0.3,0.5-1.2,0.3-1.4c-0.1-0.3-0.3-0.4-0.5-0.6c-0.2-0.2-0.4-0.6-0.5-0.9c-0.3-0.7-0.6-1.6-1-2.4
	c-0.2-0.4-0.4-0.7-0.7-1c-0.3-0.4-0.5-0.6-0.7-1c-0.1-0.1-0.2-0.4-0.1-0.5c0-0.1,0.1-0.1,0.2-0.2c0.2-0.1,0.7,0,0.9,0.1
	c0.5,0.2,0.9,0.4,1.3,0.7c0.2,0.1,0.4,0.4,0.6,0.5h0.3c0.4,0.1,0.9,0,1.3,0.2c0.7,0.2,1.3,0.6,1.9,0.9c1.8,1.1,3.2,2.7,4.2,4.6
	c0.2,0.3,0.2,0.6,0.4,0.9c0.3,0.6,0.6,1.3,0.9,2c0.3,0.6,0.6,1.3,0.9,1.8c0.2,0.3,1,0.4,1.4,0.6c0.3,0.1,0.7,0.2,0.9,0.4
	c0.5,0.3,0.9,0.6,1.3,0.9c0.2,0.2,0.9,0.5,0.9,0.8c-1.1,0-1.9,0.1-2.6,0.4c-0.2,0.1-0.5,0.1-0.6,0.3c0.1,0.1,0.1,0.3,0.2,0.4
	c0.2,0.3,0.4,0.6,0.7,0.8c0.3,0.2,0.6,0.4,0.9,0.6c0.5,0.3,1.1,0.5,1.6,0.8c0.3,0.2,0.6,0.4,0.9,0.6c0.1,0.1,0.2,0.3,0.4,0.3v0
	c-0.1-0.1-0.1-0.3-0.2-0.4l-0.4-0.4c-0.4-0.5-0.9-1-1.4-1.3c-0.4-0.3-1.4-0.7-1.5-1.2l0,0c0.3,0,0.6-0.1,0.9-0.2
	c0.5-0.1,0.9-0.1,1.3-0.2c0.2-0.1,0.4-0.1,0.6-0.2v-0.1c-0.2-0.2-0.4-0.6-0.7-0.8c-0.7-0.6-1.4-1.2-2.2-1.6c-0.4-0.3-1-0.4-1.4-0.7
	c-0.2-0.1-0.4-0.1-0.5-0.2c-0.2-0.3-0.4-0.7-0.6-1c-0.4-0.7-0.8-1.5-1.1-2.3c-0.2-0.5-0.4-1.1-0.7-1.5c-1.4-2.3-2.9-3.7-5.2-5
	c-0.5-0.3-1.1-0.4-1.7-0.5c-0.3,0-0.7,0-1-0.1c-0.2-0.1-0.4-0.3-0.6-0.5C32.9,8.5,31.9,8,31.2,8z M34.5,11.3c-0.2,0-0.4,0-0.6,0.1v0
	h0c0.1,0.2,0.3,0.4,0.4,0.5c0.1,0.2,0.2,0.4,0.3,0.6l0,0c0.2-0.1,0.3-0.3,0.3-0.7c-0.1-0.1-0.1-0.2-0.2-0.3
	C34.8,11.5,34.6,11.4,34.5,11.3z M1.9,24c-0.3,0-0.6,0.1-1,0.2C0.3,24.4,0,24.7,0,25.4V33h2v-7.4l2.8,6.3C5.1,32.7,5.6,33,6.5,33
	c0.9,0,1.4-0.3,1.7-1.1l2.8-6.1V33h2v-7.6c0-0.7-0.3-1.1-0.9-1.3c-1.4-0.4-2.4-0.1-2.8,0.9l-2.9,6.4l-2.8-6.4
	C3.4,24.4,2.8,24,1.9,24z M26.2,24c-0.8,0-3.2,0.1-3.2,2v1.2c0,0.9,0.8,1.6,2.4,1.8c0.2,0,0.4,0,0.6,0c0,0,1.9,0,2,0
	c1.1,0,1,0.9,1,1v1c0,0.1,0,1-1,1h-5v1h5c0.7,0,1.3-0.1,1.8-0.4c0.8-0.4,1.2-0.9,1.2-1.6v-1.4c0-1.5-1.9-1.6-3-1.6h-2
	c-0.8,0-0.9-0.5-1-1v-1c0.1-0.4,0.3-0.9,1-1h5v-1H26.2z M34,24c-1.5,0.2-2,0.9-2,2v5c0,1,0.5,1.6,1.7,1.9c0.4,0.1,0.7,0.1,1,0.1
	l2.2,0h1.3l1.1,1h2.3L40,32.6c0.7-0.3,1-0.8,1-1.6v-5c0-1.1-0.7-1.8-2.2-2H34z M42,24v7c0,1.2,0.7,1.9,2.5,2c0.2,0,0.3,0,0.5,0h5v-1
	h-4.6c-1,0-1.4-0.4-1.4-1.1V24H42z M35.2,25h2.6c0.7,0,1.1,0.5,1.2,1c0,0,0,4.7,0,5s-0.2,0.5-0.2,0.5L38.3,31H36l1.1,1h-1.9
	c-0.7,0-1.1-0.5-1.2-1v-4.9C34,25.6,34.4,25,35.2,25z M14,27c0,0,0,4.3,0,4.3c0,0.9,1.1,1.6,2.9,1.7H20v0.1c0,0.2,0.1,0.8-1,0.9
	c0,0-5,0-5,0v1h5.2c0.9,0,2.8-0.2,2.8-1.8c0,0,0-6.2,0-6.2h-2v5c0,0-2.5,0-3,0c-1,0-1-0.6-1-0.8V27H14z"/>
</svg>
