<?xml version="1.0" encoding="utf-8"?>
<!-- Generator: Adobe Illustrator 23.0.5, SVG Export Plug-In . SVG Version: 6.00 Build 0)  -->
<svg version="1.1" id="Layer_1" xmlns="http://www.w3.org/2000/svg" xmlns:xlink="http://www.w3.org/1999/xlink" x="0px" y="0px"
	 viewBox="0 0 48 48" style="enable-background:new 0 0 48 48;" xml:space="preserve">
<style type="text/css">
	.st0{fill:#FFFFFF;}
	.st1{fill:#1ABC9C;}
</style>
<path class="st0" d="M44.1,29.8C43.9,29,43.1,28,41.6,28c-0.3,0-0.6,0-1,0.1c-0.7,0.1-1.3,0.2-1.8,0.2c4.1-7,6.8-16.8,4.2-20.2
	C39.4,3.7,34.7,3,32.2,3L32,3c-0.9,0-1.9,0.1-2.9,0.3l-3.6,0.8C25,4.1,24.5,4,24,4h0h0l-0.2,0c-1.6,0-3,0.3-4.3,1l-1.3-0.5
	C16.5,3.8,13.9,3,11.4,3c-0.1,0-0.3,0-0.4,0c-2.5,0.1-4.7,1-6.3,2.8c-2,2.1-2.9,5.3-2.7,9.3C2,15.3,4.5,36,11.4,36h0l0.1,0
	c0.9,0,1.8-0.4,2.6-1.1c0.6,0.5,1.4,0.7,2.1,0.8c0.5,0.1,1.4,0.3,2.4,0.3c1.3,0,2.4-0.3,3.4-0.7c0,0.9,0,2,0,3.4l0,0.1l0,0.1
	c0.1,1.4,0.3,2.7,0.7,3.7c1.1,2.9,2.9,4.4,5.1,4.4c0.1,0,0.2,0,0.3,0c1.8-0.1,3.7-1.2,5-2.8c1.4-1.8,1.7-3.6,1.8-5l0-0.1V39v-4.1
	l0.1,0l0.4,0l0,0l0,0c0.1,0,0.3,0,0.4,0c1.5,0,3.4-0.4,4.6-1C41.8,33.5,44.6,31.9,44.1,29.8z"/>
<path class="st1" d="M33,34c0-0.2,0-0.4,0-0.6c0-0.3,0-0.4,0-0.4s0,0,0,0c0.1-2.7,0.9-3.7,1.7-4.3c-0.1-0.2-0.2-0.3-0.4-0.5
	c-0.3-0.4-0.7-1-1.2-1.7l-0.1-0.2c-0.1-0.2-0.2-0.4-0.4-0.8c-1.2-2.1-3.6-6.6-2-9.4c0.7-1.2,2.1-1.9,4.1-2.1C34,11.7,30.9,6.1,24,6
	c0,0,0,0,0,0c-6-0.1-8,5.4-8.7,8.7c0.9-0.4,1.9-0.6,2.8-0.6c0,0,0,0,0,0c2.3,0,3.9,1.2,4.3,3.4c0.3,1.6,0.5,2.9,0.5,4.2
	c0,2.7-0.6,4.1-1,5.4l-0.2,0.4c-0.1,0.3-0.3,0.6-0.4,0.9c-0.1,0.3-0.2,0.6-0.3,0.8c0.5,0.1,0.9,0.3,1.1,0.4l0.2,0.1
	c0,0,0.1,0,0.1,0.1c0.8,0.5,1.4,1.3,1.5,2.2c0.1,0.5,0.1,3.9,0,6.9c0.1,1.3,0.3,2.4,0.6,3.1C25,43,26.1,45.1,28,45
	c1.4-0.1,2.7-0.9,3.6-2c0.9-1.2,1.3-2.5,1.4-4L33,34L33,34z"/>
<path class="st1" d="M15.1,28.9c-1.6-1.7-2.4-3.9-2.1-6.1c0.3-2,0.1-4,0-5.1c0-0.4,0-0.6,0-0.8c0,0,0,0,0,0c0,0,0,0,0,0
	c0.1-3,1.3-7.8,4.5-10.6C15.9,5.7,13.4,4.9,11,5C7.3,5.1,3.6,7.7,4,15c0.1,2.7,3.2,19.1,7.4,19c0.6,0,1.2-0.4,1.9-1.2
	c1-1.2,2-2.3,2.7-3.1C15.7,29.5,15.4,29.2,15.1,28.9z M37,14.7c0,0.2,0,0.3,0,0.4c0,0.9-0.1,1.8-0.2,2.7c-0.1,0.6-0.2,1.3-0.2,2
	c0,0.6,0.1,1.3,0.2,2c0.2,1.6,0.5,3.4-0.8,5.4c0.2,0.3,0.4,0.6,0.6,0.8c4.6-7.5,6.5-16.4,4.7-18.6C38.7,5.9,34.9,5,32,5
	c-0.9,0-1.8,0.1-2.5,0.3C34.6,7.8,36.9,13,37,14.7z M41,30.1c-2.7,0.5-3.9,0.3-4.6-0.1c-0.1,0.1-0.2,0.1-0.3,0.2
	c-0.4,0.2-1,0.6-1.1,2.8c0.1,0,0.2,0,0.2,0l0.4,0c1.3,0.1,3-0.3,4.1-0.8C42,31.2,43.2,29.6,41,30.1z M22,32.1c0-0.3-0.2-0.5-0.5-0.7
	l-0.1,0C21.1,31.2,20.7,31,20,31h0c-0.1,0-0.3,0-0.4,0c-0.1,0-0.1,0-0.2,0c-0.5,0.4-1.1,0.6-2.8,1c-3,0.8-1.2,1.7-0.1,1.8
	c1.1,0.3,3.7,0.6,5.5-0.8C22,32.5,22,32.2,22,32.1z"/>
<path class="st1" d="M20.7,18.5c-0.3,0.3-0.8,0.6-1.3,0.5c-0.8-0.1-1.5-1.1-1.4-1.5l0,0c0-0.4,0.8-0.6,1.6-0.4
	c0.3,0,0.5,0.1,0.8,0.2c-0.3-0.7-0.9-1.1-1.8-1.2c-1.6-0.2-3.2,0.6-3.6,1.1c0,0.1,0,0.3,0,0.4c0.1,1.1,0.3,3.3-0.1,5.5
	c-0.2,1.5,0.4,3.2,1.6,4.4c0.8,0.8,1.6,1.3,2.5,1.4c0.1-0.5,0.3-0.9,0.5-1.4c0.1-0.3,0.2-0.5,0.3-0.9l0.2-0.4
	c0.4-1.2,0.9-2.4,0.9-4.7C21,20.7,20.9,19.6,20.7,18.5z M34.8,22c-0.1-0.7-0.2-1.5-0.2-2.3c0-0.7,0.1-1.4,0.2-2.1
	c0.1-0.5,0.1-1,0.1-1.5c-1.3,0.1-2.1,0.5-2.6,1.1c0.2-0.1,0.4-0.1,0.6-0.1c0.9-0.1,1.5,0.1,1.6,0.6c0.1,0.4-0.3,0.7-0.4,0.8
	c-0.3,0.3-0.6,0.4-1,0.5c-0.1,0-0.1,0-0.2,0c-0.4,0-0.7-0.1-0.9-0.3c0.1,2,1.6,4.6,2.3,5.9c0.2,0.3,0.3,0.5,0.4,0.7
	C35.2,24.2,35,23.1,34.8,22z"/>
</svg>
