<?xml version="1.0" encoding="utf-8"?>
<!-- Generator: Adobe Illustrator 23.0.5, SVG Export Plug-In . SVG Version: 6.00 Build 0)  -->
<svg version="1.1" id="Layer_1" xmlns="http://www.w3.org/2000/svg" xmlns:xlink="http://www.w3.org/1999/xlink" x="0px" y="0px"
	 viewBox="0 0 2500 2031" style="enable-background:new 0 0 2500 2031;" xml:space="preserve">
<style type="text/css">
	.st0{fill:#1ABC9C;}
</style>
<path class="st0" d="M152.6,341.9v854.7l147-82.7V424.6L152.6,341.9L152.6,341.9z"/>
<path class="st0" d="M5.5,1113.8V84.6l873,496.3v174.6l-726-413.6v854.7L5.5,1113.8L5.5,1113.8z"/>
<path class="st0" d="M1770,84.6v1029.3l-588.2,330.8l-147-91.9l588.2-330.8V332.7L878.6,755.4V580.8L1770,84.6L1770,84.6z"/>
<path class="st0" d="M1623,1.8L887.8,415.4L152.6,1.8L5.5,84.5l873.1,496.3L1770,84.6L1623,1.8L1623,1.8z"/>
<path class="st0" d="M1475.9,415.4v523.8l147,82.7V332.7L1475.9,415.4L1475.9,415.4z"/>
<path class="st0" d="M740.7,1352.8l735.2-413.6l147,82.7l-588.2,330.8l579,330.8l588.2-330.8l147,82.7L1613.8,1849L740.7,1352.8
	L740.7,1352.8z"/>
<path class="st0" d="M740.7,1352.8v174.6l873.1,496.3V1849L740.7,1352.8L740.7,1352.8z M2349,1435.5V920.8l-147.1-82.7v514.6
	L2349,1435.5L2349,1435.5z"/>
<path class="st0" d="M1613.8,1849l735.2-413.6V920.8l147-82.7v689.3l-882.2,496.3L1613.8,1849L1613.8,1849z"/>
<path class="st0" d="M2496,838.1L2349,920.8l-147-82.7l147-82.7L2496,838.1L2496,838.1z"/>
<path class="st0" d="M2349,755.4V580.8l147-82.7v174.6L2349,755.4L2349,755.4z"/>
<path class="st0" d="M2349,580.8v174.6l-147.1-82.7V498.1L2349,580.8L2349,580.8z"/>
<path class="st0" d="M2496,498.1L2349,580.8l-147-82.7l147-82.7L2496,498.1L2496,498.1z"/>
</svg>
