<svg xmlns="http://www.w3.org/2000/svg" viewBox="0 0 140.56 142.11"><defs><style>.cls-1{fill:#29c0a2;fill-rule:evenodd;}.cls-2{fill:none;}</style></defs><title>Asset 1</title><g id="Layer_2" data-name="Layer 2"><g id="Layer_1-2" data-name="Layer 1"><path class="cls-1" d="M73.52,142.11l-3.79-1.29s.46-19.29-6.46-20.67c-4.61-5.35.74-227,17.35-.74,0,0-5.72,2.86-6.74,7.75s-.36,15-.36,15Z"/><path class="cls-1" d="M73.52,142.11l-3.79-1.29s.46-19.29-6.46-20.67c-4.61-5.35.74-227,17.35-.74,0,0-5.72,2.86-6.74,7.75s-.36,15-.36,15Z"/><path class="cls-1" d="M75.55,123.47s33.12-21.78,25.37-67.09c-7.47-32.94-25.1-43.74-27-47.89A46.53,46.53,0,0,1,69.73.37L71.12,92c0,.1-2.86,28.06,4.43,31.47"/><path class="cls-1" d="M75.55,123.47s33.12-21.78,25.37-67.09c-7.47-32.94-25.1-43.74-27-47.89A46.53,46.53,0,0,1,69.73.37L71.12,92c0,.1-2.86,28.06,4.43,31.47"/><path class="cls-1" d="M67.79,124.67S36.7,103.45,38.54,66.07,62.26,10.34,66.5,7c2.77-2.95,2.86-4.06,3-7,1.94,4.15,1.57,62.11,1.84,68.93.83,26.3-1.47,50.76-3.6,55.74Z"/><path class="cls-1" d="M67.79,124.67S36.7,103.45,38.54,66.07,62.26,10.34,66.5,7c2.77-2.95,2.86-4.06,3-7,1.94,4.15,1.57,62.11,1.84,68.93.83,26.3-1.47,50.76-3.6,55.74Z"/><rect class="cls-2" y="0.78" width="140.56" height="140.56"/></g></g></svg>