<?xml version="1.0" encoding="utf-8"?>
<!-- Generator: Adobe Illustrator 23.0.5, SVG Export Plug-In . SVG Version: 6.00 Build 0)  -->
<svg version="1.1" id="Capa_1" xmlns="http://www.w3.org/2000/svg" xmlns:xlink="http://www.w3.org/1999/xlink" x="0px" y="0px"
	 viewBox="0 0 480.1 480.1" style="enable-background:new 0 0 480.1 480.1;" xml:space="preserve">
<style type="text/css">
	.st0{fill:#1ABC9C;}
</style>
<g>
	<path class="st0" d="M206.8,333H39.2c-3.9,0-7.1-3.2-7.1-7.1V53.4c0-3.9,3.2-7.1,7.1-7.1h401.6c3.9,0,7.1,3.2,7.1,7.1V113
		c11.8,1.4,22.8,5.2,32.2,11.6V53.4c0-21.6-17.6-39.2-39.2-39.2H39.2C17.6,14.1,0,31.7,0,53.4v272.6c0,21.6,17.6,39.2,39.2,39.2
		h134.6v52.6h-21.2c-13.3,0-24.1,10.8-24.1,24.1s10.8,24.1,24.1,24.1h67.7c-8.5-11.9-13.6-26.4-13.6-42L206.8,333L206.8,333z"/>
	<path class="st0" d="M341.7,441.6v-34.7h-70.7V185c0-4.7,3.8-8.5,8.5-8.5h159.9c4.7,0,8.5,3.8,8.5,8.5v68.7h12
		c7.4,0,14.2,2.1,20.1,5.6V185c0-22.4-18.2-40.6-40.6-40.6H279.6c-22.4,0-40.6,18.2-40.6,40.6v238.9c0,22.4,18.2,40.6,40.6,40.6H349
		C344.6,458.2,341.7,449.4,341.7,441.6z"/>
	<path class="st0" d="M460,273.8h-78c-11.1,0-20.1,9-20.1,20.1v147.7c0,11.1,9,20.1,20.1,20.1h78c11.1,0,20.1-9,20.1-20.1V293.9
		C480.1,282.8,471.1,273.8,460,273.8z M386,297.9h70v127.7h-70V297.9z M421,452c-2.2,0-4.2-0.9-5.7-2.3c-1.7-1.6-2.8-3.7-2.8-6.2
		c0-4.7,3.8-8.5,8.5-8.5c4.7,0,8.5,3.8,8.5,8.5c0,2.5-1.1,4.7-2.8,6.2C425.2,451.1,423.2,452,421,452z"/>
</g>
</svg>
